<svg width="16" height="15" viewBox="0 0 16 15" fill="none" xmlns="http://www.w3.org/2000/svg">
<g clip-path="url(#clip0_293_109)">
<path fill-rule="evenodd" clip-rule="evenodd" d="M15.2873 1.32898C15.3387 1.38059 15.3794 1.4419 15.4072 1.50939C15.435 1.57688 15.4494 1.64924 15.4494 1.72232C15.4494 1.79539 15.435 1.86775 15.4072 1.93524C15.3794 2.00274 15.3387 2.06404 15.2873 2.11565L7.56314 9.89343C7.51189 9.94517 7.451 9.98621 7.38398 10.0142C7.31695 10.0422 7.24509 10.0566 7.17252 10.0566C7.09995 10.0566 7.02809 10.0422 6.96106 10.0142C6.89403 9.98621 6.83315 9.94517 6.7819 9.89343L3.47155 6.56009C3.42026 6.50844 3.37957 6.44712 3.3518 6.37963C3.32404 6.31214 3.30975 6.23981 3.30975 6.16676C3.30975 6.09371 3.32404 6.02138 3.3518 5.95389C3.37957 5.8864 3.42026 5.82508 3.47155 5.77343C3.52285 5.72177 3.58375 5.6808 3.65077 5.65285C3.71779 5.62489 3.78963 5.6105 3.86217 5.6105C3.93472 5.6105 4.00655 5.62489 4.07358 5.65285C4.1406 5.6808 4.2015 5.72177 4.2528 5.77343L7.17252 8.71454L14.506 1.32898C14.5573 1.27725 14.6182 1.2362 14.6852 1.20819C14.7522 1.18018 14.8241 1.16577 14.8967 1.16577C14.9692 1.16577 15.0411 1.18018 15.1081 1.20819C15.1751 1.2362 15.236 1.27725 15.2873 1.32898V1.32898Z" fill="#2DC071"/>
<path fill-rule="evenodd" clip-rule="evenodd" d="M7.17242 1.16673C5.97209 1.16673 4.79872 1.52514 3.80069 2.19664C2.80265 2.86814 2.02478 3.82256 1.56543 4.93922C1.10609 6.05588 0.985899 7.28462 1.22007 8.47006C1.45424 9.6555 2.03226 10.7444 2.88102 11.5991C3.72978 12.4537 4.81116 13.0357 5.98843 13.2715C7.16569 13.5073 8.38596 13.3863 9.49492 12.9238C10.6039 12.4612 11.5517 11.678 12.2186 10.673C12.8854 9.66803 13.2414 8.48651 13.2414 7.27784C13.2414 7.1305 13.2995 6.98919 13.403 6.88501C13.5065 6.78082 13.6468 6.72229 13.7931 6.72229C13.9394 6.72229 14.0798 6.78082 14.1832 6.88501C14.2867 6.98919 14.3448 7.1305 14.3448 7.27784C14.3446 8.86766 13.8235 10.413 12.8622 11.6742C11.9009 12.9353 10.5532 13.8419 9.02811 14.2532C7.50302 14.6646 5.88575 14.5577 4.42713 13.9492C2.9685 13.3406 1.75004 12.2645 0.960701 10.8876C0.171362 9.51075 -0.144741 7.91009 0.0614162 6.33388C0.267573 4.75767 0.98447 3.29401 2.10092 2.16987C3.21738 1.04573 4.671 0.323954 6.23635 0.116466C7.8017 -0.0910215 9.3913 0.227379 10.7586 1.02229C10.8246 1.05702 10.8828 1.10482 10.93 1.16282C10.9771 1.22081 11.012 1.28781 11.0328 1.35977C11.0535 1.43173 11.0596 1.50717 11.0506 1.58155C11.0416 1.65593 11.0178 1.72771 10.9806 1.79258C10.9433 1.85745 10.8934 1.91407 10.8339 1.95902C10.7744 2.00397 10.7064 2.03634 10.6342 2.05416C10.5619 2.07199 10.4868 2.07491 10.4133 2.06275C10.3399 2.05059 10.2697 2.0236 10.2069 1.9834C9.28467 1.44639 8.23775 1.16463 7.17242 1.16673V1.16673Z" fill="#2DC071"/>
</g>
<defs>
<clipPath id="clip0_293_109">
<rect width="15.4494" height="14.4445" fill="white" transform="translate(0 0.0546839)"/>
</clipPath>
</defs>
</svg>
